# xmcd CD database file
#
# Track frame offsets:
#	150
#	12271
#	23433
#	37157
#	52129
#	66058
#	80103
#	91411
#	107816
#	123175
#
# Disc length: 1825 seconds
#
# Revision: 1
# Processed by: cddbd v1.5.1PL0 Copyright (c) Steve Scherf et al.
# Submitted via: CDex 1.51
#
DISCID=7f071f0a
DTITLE=Antonio Aguilar - Colección de Oro CD2/3
DYEAR=2003
DGENRE=Banda
TTITLE0=Señorita Cantinera
TTITLE1=Concha del Alma
TTITLE2=Pero Quererte Jamas
TTITLE3=Consentida
TTITLE4=Que Sacrificio
TTITLE5=Cuando Dos Almas
TTITLE6=Que Milagro Chaparrita
TTITLE7=Que Se Te Quite Ese Orgullo (4 Meses)
TTITLE8=Ando Que Me Lleva
TTITLE9=Mi Ultimo Fracaso
EXTD=YEAR: 2003
EXTT0=
EXTT1=
EXTT2=
EXTT3=
EXTT4=
EXTT5=
EXTT6=
EXTT7=
EXTT8=
EXTT9=
PLAYORDER=
